<mxfile host="app.diagrams.net" modified="2024-03-26T19:37:47.217Z" agent="Mozilla/5.0 (Windows NT 10.0; Win64; x64) AppleWebKit/537.36 (KHTML, like Gecko) Chrome/121.0.0.0 Safari/537.36" etag="ylT8OvjzmjbBVxyjhFFI" version="21.3.7" type="device">
  <diagram name="Σελίδα-1" id="i426EweY9k0fB_F2wGhc">
    <mxGraphModel dx="1505" dy="986" grid="0" gridSize="10" guides="1" tooltips="1" connect="1" arrows="1" fold="1" page="0" pageScale="1" pageWidth="827" pageHeight="1169" math="0" shadow="0">
      <root>
        <mxCell id="0" />
        <mxCell id="1" parent="0" />
        <mxCell id="jc9Oq-ymmOkImTj3RlM5-2" value="Τίτλος" style="rounded=0;whiteSpace=wrap;html=1;" parent="1" vertex="1">
          <mxGeometry x="-316" y="-35" width="215" height="24" as="geometry" />
        </mxCell>
        <mxCell id="jc9Oq-ymmOkImTj3RlM5-3" value="Έναρξη" style="rounded=0;whiteSpace=wrap;html=1;" parent="1" vertex="1">
          <mxGeometry x="-102" y="-35" width="77" height="24" as="geometry" />
        </mxCell>
        <mxCell id="jc9Oq-ymmOkImTj3RlM5-4" value="Λήξη" style="rounded=0;whiteSpace=wrap;html=1;" parent="1" vertex="1">
          <mxGeometry x="-25" y="-35" width="66" height="24" as="geometry" />
        </mxCell>
        <mxCell id="jc9Oq-ymmOkImTj3RlM5-5" value="Διάρκεια" style="rounded=0;whiteSpace=wrap;html=1;" parent="1" vertex="1">
          <mxGeometry x="41" y="-35" width="71" height="24" as="geometry" />
        </mxCell>
        <mxCell id="jc9Oq-ymmOkImTj3RlM5-7" value="Επικοινωνία με πελάτη" style="rounded=0;whiteSpace=wrap;html=1;" parent="1" vertex="1">
          <mxGeometry x="-316" y="-11" width="214" height="21" as="geometry" />
        </mxCell>
        <mxCell id="jc9Oq-ymmOkImTj3RlM5-8" value="1/3/2024" style="rounded=0;whiteSpace=wrap;html=1;" parent="1" vertex="1">
          <mxGeometry x="-102" y="-11" width="77" height="21" as="geometry" />
        </mxCell>
        <mxCell id="jc9Oq-ymmOkImTj3RlM5-10" value="6/3/2024" style="rounded=0;whiteSpace=wrap;html=1;" parent="1" vertex="1">
          <mxGeometry x="-25" y="-11" width="66" height="21" as="geometry" />
        </mxCell>
        <mxCell id="jc9Oq-ymmOkImTj3RlM5-11" value="5" style="rounded=0;whiteSpace=wrap;html=1;" parent="1" vertex="1">
          <mxGeometry x="41" y="-11" width="71" height="21" as="geometry" />
        </mxCell>
        <mxCell id="jc9Oq-ymmOkImTj3RlM5-16" value="Ανάλυση απαιτήσεων" style="rounded=0;whiteSpace=wrap;html=1;" parent="1" vertex="1">
          <mxGeometry x="-316" y="10" width="214" height="21" as="geometry" />
        </mxCell>
        <mxCell id="jc9Oq-ymmOkImTj3RlM5-17" value="7/3/2024" style="rounded=0;whiteSpace=wrap;html=1;" parent="1" vertex="1">
          <mxGeometry x="-102" y="10" width="77" height="21" as="geometry" />
        </mxCell>
        <mxCell id="jc9Oq-ymmOkImTj3RlM5-18" value="12/3/2024" style="rounded=0;whiteSpace=wrap;html=1;" parent="1" vertex="1">
          <mxGeometry x="-25" y="10" width="66" height="21" as="geometry" />
        </mxCell>
        <mxCell id="jc9Oq-ymmOkImTj3RlM5-19" value="6" style="rounded=0;whiteSpace=wrap;html=1;" parent="1" vertex="1">
          <mxGeometry x="41" y="10" width="71" height="21" as="geometry" />
        </mxCell>
        <mxCell id="jc9Oq-ymmOkImTj3RlM5-20" value="&lt;font style=&quot;font-size: 12px;&quot;&gt;Σχεδιασμός λειτουργιών Εφαρμογής&lt;/font&gt;" style="rounded=0;whiteSpace=wrap;html=1;" parent="1" vertex="1">
          <mxGeometry x="-316" y="30.5" width="212" height="22" as="geometry" />
        </mxCell>
        <mxCell id="jc9Oq-ymmOkImTj3RlM5-21" value="13/3/2024" style="rounded=0;whiteSpace=wrap;html=1;" parent="1" vertex="1">
          <mxGeometry x="-102" y="31" width="77" height="21" as="geometry" />
        </mxCell>
        <mxCell id="jc9Oq-ymmOkImTj3RlM5-22" value="12/4/2024" style="rounded=0;whiteSpace=wrap;html=1;" parent="1" vertex="1">
          <mxGeometry x="-25" y="31" width="66" height="21" as="geometry" />
        </mxCell>
        <mxCell id="jc9Oq-ymmOkImTj3RlM5-23" value="30" style="rounded=0;whiteSpace=wrap;html=1;" parent="1" vertex="1">
          <mxGeometry x="41" y="31" width="71" height="21" as="geometry" />
        </mxCell>
        <mxCell id="jc9Oq-ymmOkImTj3RlM5-24" value="ΣΧεδιασμός βάσης δεδομένων" style="rounded=0;whiteSpace=wrap;html=1;" parent="1" vertex="1">
          <mxGeometry x="-316" y="52" width="214" height="21" as="geometry" />
        </mxCell>
        <mxCell id="jc9Oq-ymmOkImTj3RlM5-25" value="13/4/2024" style="rounded=0;whiteSpace=wrap;html=1;" parent="1" vertex="1">
          <mxGeometry x="-102" y="52" width="77" height="21" as="geometry" />
        </mxCell>
        <mxCell id="jc9Oq-ymmOkImTj3RlM5-26" value="2/5/2024" style="rounded=0;whiteSpace=wrap;html=1;" parent="1" vertex="1">
          <mxGeometry x="-25" y="52" width="66" height="21" as="geometry" />
        </mxCell>
        <mxCell id="jc9Oq-ymmOkImTj3RlM5-27" value="20" style="rounded=0;whiteSpace=wrap;html=1;" parent="1" vertex="1">
          <mxGeometry x="41" y="52" width="71" height="21" as="geometry" />
        </mxCell>
        <mxCell id="jc9Oq-ymmOkImTj3RlM5-28" value="Σχεδιασμός UI" style="rounded=0;whiteSpace=wrap;html=1;" parent="1" vertex="1">
          <mxGeometry x="-316" y="73" width="214" height="21" as="geometry" />
        </mxCell>
        <mxCell id="jc9Oq-ymmOkImTj3RlM5-29" value="13/4/2024" style="rounded=0;whiteSpace=wrap;html=1;" parent="1" vertex="1">
          <mxGeometry x="-102" y="73" width="77" height="21" as="geometry" />
        </mxCell>
        <mxCell id="jc9Oq-ymmOkImTj3RlM5-30" value="12/5/2024" style="rounded=0;whiteSpace=wrap;html=1;" parent="1" vertex="1">
          <mxGeometry x="-25" y="73" width="66" height="21" as="geometry" />
        </mxCell>
        <mxCell id="jc9Oq-ymmOkImTj3RlM5-31" value="30" style="rounded=0;whiteSpace=wrap;html=1;" parent="1" vertex="1">
          <mxGeometry x="41" y="73" width="71" height="21" as="geometry" />
        </mxCell>
        <mxCell id="jc9Oq-ymmOkImTj3RlM5-32" value="Παρουσίαση σε πελάτη" style="rounded=0;whiteSpace=wrap;html=1;" parent="1" vertex="1">
          <mxGeometry x="-316" y="94" width="214" height="21" as="geometry" />
        </mxCell>
        <mxCell id="jc9Oq-ymmOkImTj3RlM5-33" value="13/5/2024" style="rounded=0;whiteSpace=wrap;html=1;" parent="1" vertex="1">
          <mxGeometry x="-102" y="94" width="77" height="21" as="geometry" />
        </mxCell>
        <mxCell id="jc9Oq-ymmOkImTj3RlM5-34" value="17/5/2024" style="rounded=0;whiteSpace=wrap;html=1;" parent="1" vertex="1">
          <mxGeometry x="-25" y="94" width="66" height="21" as="geometry" />
        </mxCell>
        <mxCell id="jc9Oq-ymmOkImTj3RlM5-35" value="5" style="rounded=0;whiteSpace=wrap;html=1;" parent="1" vertex="1">
          <mxGeometry x="41" y="94" width="71" height="21" as="geometry" />
        </mxCell>
        <mxCell id="jc9Oq-ymmOkImTj3RlM5-40" value="" style="rounded=0;whiteSpace=wrap;html=1;" parent="1" vertex="1">
          <mxGeometry x="-315" y="115" width="213" height="21" as="geometry" />
        </mxCell>
        <mxCell id="jc9Oq-ymmOkImTj3RlM5-41" value="" style="rounded=0;whiteSpace=wrap;html=1;" parent="1" vertex="1">
          <mxGeometry x="-102" y="115" width="77" height="21" as="geometry" />
        </mxCell>
        <mxCell id="jc9Oq-ymmOkImTj3RlM5-42" value="" style="rounded=0;whiteSpace=wrap;html=1;" parent="1" vertex="1">
          <mxGeometry x="-25" y="115" width="66" height="21" as="geometry" />
        </mxCell>
        <mxCell id="jc9Oq-ymmOkImTj3RlM5-43" value="" style="rounded=0;whiteSpace=wrap;html=1;" parent="1" vertex="1">
          <mxGeometry x="41" y="115" width="71" height="21" as="geometry" />
        </mxCell>
        <mxCell id="jc9Oq-ymmOkImTj3RlM5-44" value="Yλοποίηση GUI" style="rounded=0;whiteSpace=wrap;html=1;" parent="1" vertex="1">
          <mxGeometry x="-316" y="136" width="214" height="21" as="geometry" />
        </mxCell>
        <mxCell id="jc9Oq-ymmOkImTj3RlM5-45" value="18/5/2024" style="rounded=0;whiteSpace=wrap;html=1;" parent="1" vertex="1">
          <mxGeometry x="-102" y="136" width="77" height="21" as="geometry" />
        </mxCell>
        <mxCell id="jc9Oq-ymmOkImTj3RlM5-46" value="17/8/2024" style="rounded=0;whiteSpace=wrap;html=1;" parent="1" vertex="1">
          <mxGeometry x="-25" y="136" width="66" height="21" as="geometry" />
        </mxCell>
        <mxCell id="jc9Oq-ymmOkImTj3RlM5-47" value="90" style="rounded=0;whiteSpace=wrap;html=1;" parent="1" vertex="1">
          <mxGeometry x="41" y="136" width="71" height="21" as="geometry" />
        </mxCell>
        <mxCell id="jc9Oq-ymmOkImTj3RlM5-48" value="Ανάπτυξη λειτουργιών εφαρμογής" style="rounded=0;whiteSpace=wrap;html=1;" parent="1" vertex="1">
          <mxGeometry x="-316" y="157" width="214" height="21" as="geometry" />
        </mxCell>
        <mxCell id="jc9Oq-ymmOkImTj3RlM5-49" value="18/5/2024" style="rounded=0;whiteSpace=wrap;html=1;" parent="1" vertex="1">
          <mxGeometry x="-102" y="157" width="77" height="21" as="geometry" />
        </mxCell>
        <mxCell id="jc9Oq-ymmOkImTj3RlM5-50" value="27/6/2024" style="rounded=0;whiteSpace=wrap;html=1;" parent="1" vertex="1">
          <mxGeometry x="-25" y="157" width="66" height="21" as="geometry" />
        </mxCell>
        <mxCell id="jc9Oq-ymmOkImTj3RlM5-51" value="70" style="rounded=0;whiteSpace=wrap;html=1;" parent="1" vertex="1">
          <mxGeometry x="41" y="157" width="71" height="21" as="geometry" />
        </mxCell>
        <mxCell id="jc9Oq-ymmOkImTj3RlM5-52" value="Ανάπτυξη βάσης δεδομένων" style="rounded=0;whiteSpace=wrap;html=1;" parent="1" vertex="1">
          <mxGeometry x="-316" y="178" width="214" height="21" as="geometry" />
        </mxCell>
        <mxCell id="jc9Oq-ymmOkImTj3RlM5-53" value="18/5/2024" style="rounded=0;whiteSpace=wrap;html=1;" parent="1" vertex="1">
          <mxGeometry x="-102" y="178" width="77" height="21" as="geometry" />
        </mxCell>
        <mxCell id="jc9Oq-ymmOkImTj3RlM5-54" value="7/6/2024" style="rounded=0;whiteSpace=wrap;html=1;" parent="1" vertex="1">
          <mxGeometry x="-25" y="178" width="66" height="21" as="geometry" />
        </mxCell>
        <mxCell id="jc9Oq-ymmOkImTj3RlM5-55" value="20" style="rounded=0;whiteSpace=wrap;html=1;" parent="1" vertex="1">
          <mxGeometry x="41" y="178" width="71" height="21" as="geometry" />
        </mxCell>
        <mxCell id="jc9Oq-ymmOkImTj3RlM5-56" value="&amp;nbsp;White box testing" style="rounded=0;whiteSpace=wrap;html=1;" parent="1" vertex="1">
          <mxGeometry x="-316" y="199" width="214" height="21" as="geometry" />
        </mxCell>
        <mxCell id="jc9Oq-ymmOkImTj3RlM5-57" value="18/8/2024" style="rounded=0;whiteSpace=wrap;html=1;" parent="1" vertex="1">
          <mxGeometry x="-102" y="199" width="77" height="21" as="geometry" />
        </mxCell>
        <mxCell id="jc9Oq-ymmOkImTj3RlM5-58" value="17/9/2024" style="rounded=0;whiteSpace=wrap;html=1;" parent="1" vertex="1">
          <mxGeometry x="-25" y="199" width="66" height="21" as="geometry" />
        </mxCell>
        <mxCell id="jc9Oq-ymmOkImTj3RlM5-59" value="30" style="rounded=0;whiteSpace=wrap;html=1;" parent="1" vertex="1">
          <mxGeometry x="41" y="199" width="71" height="21" as="geometry" />
        </mxCell>
        <mxCell id="jc9Oq-ymmOkImTj3RlM5-60" value="Black box testing" style="rounded=0;whiteSpace=wrap;html=1;" parent="1" vertex="1">
          <mxGeometry x="-317" y="220" width="215" height="21" as="geometry" />
        </mxCell>
        <mxCell id="jc9Oq-ymmOkImTj3RlM5-61" value="18/8/2024" style="rounded=0;whiteSpace=wrap;html=1;" parent="1" vertex="1">
          <mxGeometry x="-102" y="220" width="77" height="21" as="geometry" />
        </mxCell>
        <mxCell id="jc9Oq-ymmOkImTj3RlM5-62" value="7/9/2024" style="rounded=0;whiteSpace=wrap;html=1;" parent="1" vertex="1">
          <mxGeometry x="-25" y="220" width="66" height="21" as="geometry" />
        </mxCell>
        <mxCell id="jc9Oq-ymmOkImTj3RlM5-63" value="20" style="rounded=0;whiteSpace=wrap;html=1;" parent="1" vertex="1">
          <mxGeometry x="41" y="220" width="71" height="21" as="geometry" />
        </mxCell>
        <mxCell id="jc9Oq-ymmOkImTj3RlM5-64" value="Διόρθωση λαθών από το testing" style="rounded=0;whiteSpace=wrap;html=1;" parent="1" vertex="1">
          <mxGeometry x="-317" y="241" width="215" height="21" as="geometry" />
        </mxCell>
        <mxCell id="jc9Oq-ymmOkImTj3RlM5-65" value="18/9/2024" style="rounded=0;whiteSpace=wrap;html=1;" parent="1" vertex="1">
          <mxGeometry x="-102" y="241" width="77" height="21" as="geometry" />
        </mxCell>
        <mxCell id="jc9Oq-ymmOkImTj3RlM5-66" value="17/11/2024" style="rounded=0;whiteSpace=wrap;html=1;" parent="1" vertex="1">
          <mxGeometry x="-25" y="241" width="66" height="21" as="geometry" />
        </mxCell>
        <mxCell id="jc9Oq-ymmOkImTj3RlM5-67" value="60" style="rounded=0;whiteSpace=wrap;html=1;" parent="1" vertex="1">
          <mxGeometry x="41" y="241" width="71" height="21" as="geometry" />
        </mxCell>
        <mxCell id="jc9Oq-ymmOkImTj3RlM5-68" value="Έλεγχος ποιόυητας κώδικα" style="rounded=0;whiteSpace=wrap;html=1;" parent="1" vertex="1">
          <mxGeometry x="-317" y="262" width="215" height="21" as="geometry" />
        </mxCell>
        <mxCell id="jc9Oq-ymmOkImTj3RlM5-69" value="18/11/2024" style="rounded=0;whiteSpace=wrap;html=1;" parent="1" vertex="1">
          <mxGeometry x="-102" y="262" width="77" height="21" as="geometry" />
        </mxCell>
        <mxCell id="jc9Oq-ymmOkImTj3RlM5-70" value="7/12/2024" style="rounded=0;whiteSpace=wrap;html=1;" parent="1" vertex="1">
          <mxGeometry x="-25" y="262" width="66" height="21" as="geometry" />
        </mxCell>
        <mxCell id="jc9Oq-ymmOkImTj3RlM5-71" value="20" style="rounded=0;whiteSpace=wrap;html=1;" parent="1" vertex="1">
          <mxGeometry x="41" y="262" width="71" height="21" as="geometry" />
        </mxCell>
        <mxCell id="jc9Oq-ymmOkImTj3RlM5-72" value="" style="rounded=0;whiteSpace=wrap;html=1;" parent="1" vertex="1">
          <mxGeometry x="112" y="-11" width="1235" height="21" as="geometry" />
        </mxCell>
        <mxCell id="jc9Oq-ymmOkImTj3RlM5-78" value="" style="rounded=0;whiteSpace=wrap;html=1;" parent="1" vertex="1">
          <mxGeometry x="112" y="10" width="1234" height="21" as="geometry" />
        </mxCell>
        <mxCell id="jc9Oq-ymmOkImTj3RlM5-79" value="" style="rounded=0;whiteSpace=wrap;html=1;" parent="1" vertex="1">
          <mxGeometry x="112" y="31" width="1234" height="21" as="geometry" />
        </mxCell>
        <mxCell id="jc9Oq-ymmOkImTj3RlM5-80" value="" style="rounded=0;whiteSpace=wrap;html=1;" parent="1" vertex="1">
          <mxGeometry x="112" y="52" width="1234" height="21" as="geometry" />
        </mxCell>
        <mxCell id="jc9Oq-ymmOkImTj3RlM5-81" value="" style="rounded=0;whiteSpace=wrap;html=1;" parent="1" vertex="1">
          <mxGeometry x="112" y="73" width="1234" height="21" as="geometry" />
        </mxCell>
        <mxCell id="jc9Oq-ymmOkImTj3RlM5-82" value="" style="rounded=0;whiteSpace=wrap;html=1;" parent="1" vertex="1">
          <mxGeometry x="112" y="94" width="1234" height="21" as="geometry" />
        </mxCell>
        <mxCell id="jc9Oq-ymmOkImTj3RlM5-83" value="" style="rounded=0;whiteSpace=wrap;html=1;" parent="1" vertex="1">
          <mxGeometry x="112" y="115" width="1235" height="21" as="geometry" />
        </mxCell>
        <mxCell id="jc9Oq-ymmOkImTj3RlM5-86" value="" style="rounded=0;whiteSpace=wrap;html=1;" parent="1" vertex="1">
          <mxGeometry x="112" y="136" width="1236" height="21" as="geometry" />
        </mxCell>
        <mxCell id="jc9Oq-ymmOkImTj3RlM5-87" value="" style="rounded=0;whiteSpace=wrap;html=1;" parent="1" vertex="1">
          <mxGeometry x="112" y="157" width="1237" height="21" as="geometry" />
        </mxCell>
        <mxCell id="jc9Oq-ymmOkImTj3RlM5-88" value="" style="rounded=0;whiteSpace=wrap;html=1;" parent="1" vertex="1">
          <mxGeometry x="112" y="178" width="1236" height="21" as="geometry" />
        </mxCell>
        <mxCell id="gUITu7oL1YpDjD9QvtqI-19" value="" style="edgeStyle=orthogonalEdgeStyle;rounded=0;orthogonalLoop=1;jettySize=auto;html=1;" edge="1" parent="1" source="jc9Oq-ymmOkImTj3RlM5-89" target="jc9Oq-ymmOkImTj3RlM5-92">
          <mxGeometry relative="1" as="geometry" />
        </mxCell>
        <mxCell id="jc9Oq-ymmOkImTj3RlM5-89" value="" style="rounded=0;whiteSpace=wrap;html=1;" parent="1" vertex="1">
          <mxGeometry x="112" y="199" width="1237" height="21" as="geometry" />
        </mxCell>
        <mxCell id="jc9Oq-ymmOkImTj3RlM5-90" value="" style="rounded=0;whiteSpace=wrap;html=1;" parent="1" vertex="1">
          <mxGeometry x="112" y="220" width="1238" height="21" as="geometry" />
        </mxCell>
        <mxCell id="gUITu7oL1YpDjD9QvtqI-15" value="" style="edgeStyle=orthogonalEdgeStyle;rounded=0;orthogonalLoop=1;jettySize=auto;html=1;" edge="1" parent="1" source="jc9Oq-ymmOkImTj3RlM5-91" target="jc9Oq-ymmOkImTj3RlM5-90">
          <mxGeometry relative="1" as="geometry">
            <Array as="points">
              <mxPoint x="711" y="231" />
              <mxPoint x="711" y="231" />
            </Array>
          </mxGeometry>
        </mxCell>
        <mxCell id="jc9Oq-ymmOkImTj3RlM5-91" value="" style="rounded=0;whiteSpace=wrap;html=1;" parent="1" vertex="1">
          <mxGeometry x="112" y="241" width="1238" height="21" as="geometry" />
        </mxCell>
        <mxCell id="jc9Oq-ymmOkImTj3RlM5-92" value="" style="rounded=0;whiteSpace=wrap;html=1;" parent="1" vertex="1">
          <mxGeometry x="112" y="262" width="1238" height="21" as="geometry" />
        </mxCell>
        <mxCell id="gUITu7oL1YpDjD9QvtqI-1" value="" style="rounded=0;whiteSpace=wrap;html=1;fillColor=#0050ef;fontColor=#ffffff;strokeColor=#001DBC;" vertex="1" parent="1">
          <mxGeometry x="112" y="-10" width="43" height="20" as="geometry" />
        </mxCell>
        <mxCell id="gUITu7oL1YpDjD9QvtqI-2" value="" style="rounded=0;whiteSpace=wrap;html=1;fillColor=#0050ef;fontColor=#ffffff;strokeColor=#001DBC;" vertex="1" parent="1">
          <mxGeometry x="155" y="11" width="77" height="20" as="geometry" />
        </mxCell>
        <mxCell id="gUITu7oL1YpDjD9QvtqI-3" value="" style="rounded=0;whiteSpace=wrap;html=1;fillColor=#0050ef;fontColor=#ffffff;strokeColor=#001DBC;" vertex="1" parent="1">
          <mxGeometry x="232" y="31.5" width="174" height="20" as="geometry" />
        </mxCell>
        <mxCell id="gUITu7oL1YpDjD9QvtqI-4" value="" style="rounded=0;whiteSpace=wrap;html=1;fillColor=#0050ef;fontColor=#ffffff;strokeColor=#001DBC;" vertex="1" parent="1">
          <mxGeometry x="407.5" y="52.5" width="83" height="20" as="geometry" />
        </mxCell>
        <mxCell id="gUITu7oL1YpDjD9QvtqI-5" value="" style="rounded=0;whiteSpace=wrap;html=1;fillColor=#0050ef;fontColor=#ffffff;strokeColor=#001DBC;" vertex="1" parent="1">
          <mxGeometry x="407.5" y="74" width="174" height="20" as="geometry" />
        </mxCell>
        <mxCell id="gUITu7oL1YpDjD9QvtqI-6" value="" style="rounded=0;whiteSpace=wrap;html=1;fillColor=#0050ef;fontColor=#ffffff;strokeColor=#001DBC;" vertex="1" parent="1">
          <mxGeometry x="581.5" y="94.5" width="43" height="20" as="geometry" />
        </mxCell>
        <mxCell id="gUITu7oL1YpDjD9QvtqI-7" value="" style="rhombus;whiteSpace=wrap;html=1;fillColor=#FFFF99;" vertex="1" parent="1">
          <mxGeometry x="617" y="117.5" width="20" height="19" as="geometry" />
        </mxCell>
        <mxCell id="gUITu7oL1YpDjD9QvtqI-8" value="" style="rounded=0;whiteSpace=wrap;html=1;fillColor=#0050ef;fontColor=#ffffff;strokeColor=#001DBC;" vertex="1" parent="1">
          <mxGeometry x="631" y="136.5" width="202" height="20" as="geometry" />
        </mxCell>
        <mxCell id="gUITu7oL1YpDjD9QvtqI-12" value="" style="rounded=0;whiteSpace=wrap;html=1;fillColor=#0050ef;fontColor=#ffffff;strokeColor=#001DBC;" vertex="1" parent="1">
          <mxGeometry x="631" y="157.5" width="149" height="20" as="geometry" />
        </mxCell>
        <mxCell id="gUITu7oL1YpDjD9QvtqI-13" value="" style="rounded=0;whiteSpace=wrap;html=1;fillColor=#0050ef;fontColor=#ffffff;strokeColor=#001DBC;" vertex="1" parent="1">
          <mxGeometry x="631" y="179" width="83" height="20" as="geometry" />
        </mxCell>
        <mxCell id="gUITu7oL1YpDjD9QvtqI-14" value="" style="rounded=0;whiteSpace=wrap;html=1;fillColor=#0050ef;fontColor=#ffffff;strokeColor=#001DBC;" vertex="1" parent="1">
          <mxGeometry x="833" y="199.5" width="174" height="20" as="geometry" />
        </mxCell>
        <mxCell id="gUITu7oL1YpDjD9QvtqI-16" value="" style="rounded=0;whiteSpace=wrap;html=1;fillColor=#0050ef;fontColor=#ffffff;strokeColor=#001DBC;" vertex="1" parent="1">
          <mxGeometry x="833" y="220.5" width="132" height="20" as="geometry" />
        </mxCell>
        <mxCell id="gUITu7oL1YpDjD9QvtqI-17" value="" style="rounded=0;whiteSpace=wrap;html=1;fillColor=#0050ef;fontColor=#ffffff;strokeColor=#001DBC;" vertex="1" parent="1">
          <mxGeometry x="1007" y="240.5" width="208" height="20" as="geometry" />
        </mxCell>
        <mxCell id="gUITu7oL1YpDjD9QvtqI-18" value="" style="rounded=0;whiteSpace=wrap;html=1;fillColor=#0050ef;fontColor=#ffffff;strokeColor=#001DBC;" vertex="1" parent="1">
          <mxGeometry x="1217" y="263" width="83" height="20" as="geometry" />
        </mxCell>
        <mxCell id="gUITu7oL1YpDjD9QvtqI-20" value="" style="rounded=0;whiteSpace=wrap;html=1;" vertex="1" parent="1">
          <mxGeometry x="112" y="283" width="1238" height="21" as="geometry" />
        </mxCell>
        <mxCell id="gUITu7oL1YpDjD9QvtqI-21" value="" style="rounded=0;whiteSpace=wrap;html=1;" vertex="1" parent="1">
          <mxGeometry x="110" y="304" width="1240" height="21" as="geometry" />
        </mxCell>
        <mxCell id="gUITu7oL1YpDjD9QvtqI-22" value="" style="rounded=0;whiteSpace=wrap;html=1;" vertex="1" parent="1">
          <mxGeometry x="41" y="283" width="71" height="21" as="geometry" />
        </mxCell>
        <mxCell id="gUITu7oL1YpDjD9QvtqI-23" value="5" style="rounded=0;whiteSpace=wrap;html=1;" vertex="1" parent="1">
          <mxGeometry x="41" y="304" width="71" height="21" as="geometry" />
        </mxCell>
        <mxCell id="gUITu7oL1YpDjD9QvtqI-24" value="" style="rounded=0;whiteSpace=wrap;html=1;" vertex="1" parent="1">
          <mxGeometry x="-25" y="283" width="66" height="21" as="geometry" />
        </mxCell>
        <mxCell id="gUITu7oL1YpDjD9QvtqI-25" value="12/12/2024" style="rounded=0;whiteSpace=wrap;html=1;" vertex="1" parent="1">
          <mxGeometry x="-25" y="304" width="66" height="21" as="geometry" />
        </mxCell>
        <mxCell id="gUITu7oL1YpDjD9QvtqI-27" value="" style="rounded=0;whiteSpace=wrap;html=1;" vertex="1" parent="1">
          <mxGeometry x="-102" y="283" width="77" height="21" as="geometry" />
        </mxCell>
        <mxCell id="gUITu7oL1YpDjD9QvtqI-28" value="8/12/2024" style="rounded=0;whiteSpace=wrap;html=1;" vertex="1" parent="1">
          <mxGeometry x="-102" y="304" width="77" height="21" as="geometry" />
        </mxCell>
        <mxCell id="gUITu7oL1YpDjD9QvtqI-29" value="" style="rounded=0;whiteSpace=wrap;html=1;" vertex="1" parent="1">
          <mxGeometry x="-316.5" y="283" width="215" height="21" as="geometry" />
        </mxCell>
        <mxCell id="gUITu7oL1YpDjD9QvtqI-30" value="Έλεγχος ποιόυητας κώδικα" style="rounded=0;whiteSpace=wrap;html=1;" vertex="1" parent="1">
          <mxGeometry x="-316" y="304" width="215" height="21" as="geometry" />
        </mxCell>
        <mxCell id="gUITu7oL1YpDjD9QvtqI-31" value="" style="rounded=0;whiteSpace=wrap;html=1;fillColor=#0050ef;fontColor=#ffffff;strokeColor=#001DBC;" vertex="1" parent="1">
          <mxGeometry x="1306" y="304.5" width="43" height="20" as="geometry" />
        </mxCell>
        <mxCell id="gUITu7oL1YpDjD9QvtqI-32" value="" style="rhombus;whiteSpace=wrap;html=1;fillColor=#FFFF99;" vertex="1" parent="1">
          <mxGeometry x="1292" y="285.5" width="20" height="19" as="geometry" />
        </mxCell>
      </root>
    </mxGraphModel>
  </diagram>
</mxfile>
